<svg width="100%" height="100%" viewBox="0 0 48 48" version="1.1"
	 xmlns="http://www.w3.org/2000/svg"
	 style="fill-rule:evenodd;stroke-linejoin:round;stroke-miterlimit:1.41421;">
	<g>
		<path fill="#fff"
			  d="M2.549,15.213l-0.004,15.261l3.988,-0.001l0,-9.297l3.429,4.216l3.65,-4.193l0.011,9.278l3.974,0.014l-0.001,-15.27l-3.957,0.002l-3.669,4.564l-3.337,-4.571l-4.084,-0.003Z"
		/>
		<path fill="#fff"
			  d="M32.71,15.195c0,0 -3.979,-0.194 -5.496,0.001c-1.267,0.163 -2.544,0.537 -3.607,1.17c-1.062,0.634 -2.136,1.569 -2.768,2.629c-0.632,1.062 -0.87,1.674 -1.027,3.742c-0.058,0.765 -0.104,1.536 0.01,2.294c0.157,1.048 0.51,2.717 0.933,3.992c0.417,1.255 1.608,3.656 1.608,3.656l3.282,-2.215c0,0 -0.908,-1.655 -1.214,-2.504c-0.302,-0.84 -0.62,-2.588 -0.62,-2.588l4.861,0.008l-0.001,5.094l4.428,0.013l-0.007,-11.532l-4.427,0.011l0.011,3.296c0,0 -3.752,0.077 -3.938,-0.046c-0.066,-0.044 0.303,-1.683 0.765,-2.297c0.462,-0.614 1.424,-1.27 2.008,-1.389c0.059,-0.012 6.283,-0.014 6.283,-0.014l-1.084,-3.321Z"
		/>
		<path fill="#fff"
			  d="M36.195,15.196l-0.002,15.282l8.644,-0.012l0.887,-3.307l-5.535,-0.008l0,-11.957l-3.994,0.002Z"
		/>
	</g>
</svg>