<svg viewBox="0 0 891.000000 549.000000"><path d="M.5 6.1c.9 3.2 10.6 22.9 15 30.4 1.9 3.3 3.9 6.9 4.5 8 .6 1.1 1.9 3.3 3 5 1.1 1.6 2.3 3.7 2.7 4.5.4.8 2.7 4.4 5.2 8 2.4 3.6 5.8 8.5 7.5 11 6.1 9.1 28.6 37.5 35.6 45 .8.9 5.1 5.6 9.5 10.4 14.7 16.3 52.1 52.9 68.1 66.7 8.8 7.6 17.7 15.4 18.8 16.4.6.6 3.4 2.8 6.1 5 2.8 2.2 5.2 4.2 5.5 4.6.4.5 8.9 7.3 19 15.4 2.1 1.6 8.2 6.6 13.6 11 5.5 4.5 16.4 13 24.4 19s14.7 11.2 15 11.6c.3.3 10 7.7 21.5 16.5 32.9 24.9 32.5 24.5 32.5 33.1 0 5.7-1.4 14.9-4.1 26.3-.6 2.5-1.5 7-1.9 10-.9 6.5-2.6 15.8-4.5 25.5-4.2 21-3.9 32.7 1.1 39.2 4.1 5.4 19.6 20.5 32.3 31.3 3.5 3 6.9 6 7.5 6.5.6.6 3.4 2.8 6.1 5 2.8 2.2 5.5 4.5 6 5.1.6.6 3 2.6 5.5 4.5s5.6 4.4 7 5.6c3.2 2.8 10.9 8.8 35.5 27.5 11 8.4 20.5 15.7 21 16.4.6.6 3.3 2.6 6 4.5 2.8 1.9 5.2 3.7 5.5 4 .3.3 3.4 2.6 7 5.1l6.5 4.5 5-3.4c8.6-6 19-13.6 20-14.8.6-.6 9.2-7.3 19.2-14.9 10.1-7.5 18.8-14.3 19.5-14.9.7-.7 5-4.2 9.6-7.7 15.9-12.4 20.7-16.1 21.2-16.8.3-.4 2.8-2.5 5.5-4.7 2.8-2.2 5.5-4.4 6.1-5 .6-.5 4-3.5 7.5-6.5 16.5-14.2 32.2-29.9 34.5-34.8 2.6-5.5 1.9-27.7-1.3-36.6-.7-2.1-1.3-5-1.3-6.5 0-1.4-.6-5.8-1.4-9.6-.8-3.9-2.2-10.6-3-15-.8-4.4-2.2-11.5-3-15.8-.9-4.3-1.6-10.6-1.6-14 0-8.5.2-8.7 29.5-30.9 9.9-7.5 19.1-14.5 20.5-15.7 1.4-1.1 3-2.4 3.5-2.9.6-.4 9.1-7 19-14.5s20.1-15.4 22.6-17.4c2.5-2.1 7.9-6.5 11.9-9.8 4-3.3 9.8-8 12.9-10.4 3.1-2.5 5.8-4.7 6.1-5 .3-.3 2.8-2.4 5.5-4.6 2.8-2.1 5.2-4.2 5.5-4.5.3-.3 3.9-3.5 8-7 15.4-13.4 21.9-19.2 34.4-31 12.8-12.1 36.5-36.1 45.1-45.6 4.4-4.8 8.7-9.5 9.5-10.4 7.7-8.2 29.4-35.8 37-47 2.4-3.6 5.8-8.6 7.6-11.2 1.9-2.6 4.2-6.2 5.2-8 1.6-3 4.6-8 7.9-13.3.7-1.1 4.7-8.9 8.9-17.3 4.2-8.3 8-15 8.5-14.6.5.3.9-.2.9-1 0-2.8-3.1-1.7-6.7 2.1-1.8 2.1-6 7.2-9.3 11.4-7.8 10-31 33.4-43.4 43.8-5.4 4.5-10.4 8.7-11.1 9.4-2.6 2.5-14.8 12.3-18.9 15.2-3.7 2.6-15.9 11.7-19.1 14.3-.5.4-5 3.5-10 6.8-4.9 3.3-11.9 8-15.5 10.5-3.6 2.5-9.4 6.2-13 8.4-3.6 2.1-6.6 4.3-6.8 4.7-.2.4-.9.8-1.6.8-.7 0-3.2 1.4-5.4 3-2.3 1.7-4.4 3-4.6 3-.3 0-2.2 1.2-4.3 2.6-2.1 1.4-4.7 3-5.8 3.5-1.1.5-3.3 1.8-5 2.9-1.6 1.1-4.3 2.6-6 3.4-1.6.8-5.2 2.9-8 4.5-2.7 1.7-5.9 3.5-7 4.1-1.1.6-3.3 1.9-5 3-1.6 1.1-3.7 2.2-4.5 2.6-1.7.6-2.6 1.1-9.9 5-15.5 8.5-24 12.8-73.6 37.8-62.8 31.7-69.5 35.2-75.2 38.9-2.4 1.5-4.6 2.7-5 2.8-.5 0-3.5 2.2-6.8 4.8-5.3 4.2-6 5.2-6.3 8.7-.2 2.1.3 6.8 1.1 10.4.9 3.6 1.8 8.5 2.2 11 .3 2.5 1 5.8 1.5 7.5.5 1.6 1.4 5.9 2 9.5.6 3.6 1.8 9.6 2.6 13.5.8 3.8 1.9 10.4 2.4 14.5.6 4.1 1.5 8.8 2 10.4.6 1.6 1 9.2 1 16.9 0 10.7-.4 15.1-1.7 19-2.1 5.8-8.1 12.9-16.2 19.1-5.6 4.2-22.5 14.5-29.1 17.8-15.2 7.4-25.1 11.8-26.5 11.8-1.4 0-11.3-4.4-26.5-11.8-6.6-3.3-23.5-13.6-29.1-17.8-8.4-6.4-14.1-13.3-16.2-19.5-1.5-4.5-1.8-7.8-1.4-19.9.4-14 1.9-27.3 3.8-33.5.5-1.7 1.3-5.7 1.8-9 1.1-7 2.6-14.4 4.6-23.5 1.7-7.9 2.3-11.2 3.7-21.2 1.1-7.6 1.1-7.8-1.3-10.1-3.2-3-10.5-8.7-11.3-8.7-.4 0-2.5-1.2-4.9-2.7-5.7-3.7-13-7.5-74.2-38.3-29.1-14.6-56.6-28.6-61-31-14.9-8.2-20-10.9-25-13.5-2.7-1.4-5.7-3-6.5-3.5-6-3.7-15.7-9.3-17.4-10.1-1.2-.5-3-1.5-4.1-2.1-2.1-1.4-8.9-5.6-11.7-7.3-11.1-6.6-30.7-18.9-35.8-22.4-3.6-2.5-11.4-7.8-17.5-11.9-10.6-7.2-17.6-12.3-20.3-14.9-.7-.7-3.6-2.8-6.5-4.7-4.5-3-8.9-6.5-18.7-14.9-1.4-1.2-6.8-5.8-12-10.1-16.7-14-42-40.5-50-52.5-.8-1.3-2.8-3.2-4.4-4.3L-.2 3.7l.7 2.4zm848.2 57.4c-2.1 3-3.7 5.8-3.7 6.2 0 .4-.9 1.6-1.9 2.7-1.1 1.2-3.9 4.9-6.3 8.2-9 12.8-14.9 20-34.7 42-2 2.2-4.9 5.7-6.5 7.7-1.6 2-3.5 3.7-4.3 3.7-.7 0-2 1.1-2.9 2.5-2 3.1-22.6 23.8-35.2 35.5-16.4 15.2-24.1 22-24.8 22-.5 0-2.4 1.8-4.3 4s-4 4-4.5 4c-.6 0-3.1 2.1-5.6 4.6-2.5 2.5-6.2 5.7-8.2 7-2.1 1.3-3.8 2.9-3.8 3.4 0 .6-.5 1-1.1 1-.6 0-4.8 3.4-9.4 7.5-4.5 4.1-8.5 7.5-8.9 7.5-.5 0-10.1 7.7-15.6 12.6-4.1 3.7-11.9 9.7-21.9 16.8-6.1 4.4-11.1 8.2-11.1 8.6 0 .3-1.8 1.6-3.9 2.8-2.2 1.2-4.1 2.7-4.3 3.2-.2.5-2.2 2.1-4.5 3.7-8.1 5.5-38.2 29.8-39.2 31.8-.6 1.1-2 3.2-3.2 4.7-2 2.4-2.2 3.9-2.2 14 .1 7.1.8 15.4 2.1 22.3 1.2 6 3.1 15.9 4.2 22 4.5 23.4 5.2 28.9 4.6 37.5-.5 7-1.1 9.2-3.4 12.5-3.3 4.9-14.9 16.6-23.9 24.2-3.8 3.1-9.3 7.9-12.4 10.7-6.6 5.9-11.5 10-18.4 15.2-2.7 2-7.1 5.5-9.6 7.8s-7.1 5.9-10.2 8c-3.1 2.2-5.9 4.6-6.1 5.2-.3.7-2 2.1-3.8 3-1.8.9-4.7 2.9-6.5 4.3-1.7 1.4-4.8 3.9-6.8 5.6-2 1.6-4.7 3.9-6 5.1-1.2 1.2-4 3.2-6.1 4.4-2.2 1.3-4.3 3-4.7 3.7-.4.7-2 1.9-3.6 2.7-1.5.8-4.3 2.9-6.2 4.7-1.9 1.7-5 4.2-7.1 5.5-2 1.3-3.9 2.8-4.3 3.4-1.1 1.8-7.1 1.1-9-1-1-1.1-2.2-2-2.7-2s-3.8-2.4-7.2-5.3c-6.4-5.3-8.9-7.2-16.1-12.7-2.2-1.6-4.5-3.4-5.2-4-.7-.5-6.1-4.7-12-9.2-5.9-4.5-16.6-13-23.8-18.8-7.1-5.8-14.8-11.9-17-13.5-2.2-1.6-4.4-3.4-5-4-.5-.6-2.2-1.9-3.7-2.8-1.6-1-2.8-2.3-2.8-3 0-.6-1.2-2-2.8-3-6.2-3.9-10.2-7.3-20.2-17.1-11-10.8-16.4-16.7-18-19.7-1.9-3.5-2.2-19-.7-27.9 2.3-12.5 6.4-34.3 8.3-44 .9-4.7 1.7-13.3 1.8-19.1.1-14.1-1.4-17.1-14-27.5-5.1-4.2-10.2-8.2-11.3-8.8-1-.6-5.1-3.7-8.9-6.9-3.9-3.1-8.7-6.7-10.7-7.8-1.9-1.2-4-3-4.6-4-.5-1.1-1.6-1.9-2.4-1.9-.8 0-2.7-1.1-4.2-2.5-7.9-7-12.2-10.5-15.8-12.9-7.4-4.9-15.5-11.3-29.4-23.1-2.6-2.2-8.2-6.7-12.5-10-6.7-5.2-15-12.1-22.1-18.3-1.1-.9-4.5-3.8-7.5-6.3-18.5-15.4-56-50.9-70.8-66.9-6.3-6.9-13.8-15-16.6-18-8.3-8.9-22.3-26.2-29.5-36.3-2.4-3.4-4.7-6.4-5.2-6.7-.4-.3-1.5-2.2-2.4-4.3-.8-2-2-3.7-2.5-3.7-.6 0-1-1.4-1-3 0-1.7.5-3 1.1-3 .6 0 3.7 2.2 6.8 4.8 3.1 2.6 7.2 5.9 9.1 7.4 1.9 1.4 5.5 4.4 8 6.7 2.5 2.2 4.8 4.1 5.2 4.1.4 0 1.5.8 2.5 1.8 2.4 2.5 24.9 19.2 29.6 22.1 2 1.2 3.7 2.6 3.7 3.1s.9 1.2 2.1 1.5c1.1.4 4.7 2.5 8.1 4.8 3.3 2.3 8.1 5.5 10.7 7.1 2.5 1.5 4.8 3.2 4.9 3.7.2.5 2.1 1.8 4.1 2.9 2.1 1 7.8 4.6 12.7 7.8 4.9 3.3 13.8 8.7 19.7 12 6 3.3 11.7 6.8 12.6 7.6 1 .9 2.2 1.6 2.7 1.6.6 0 5 2.4 10 5.3 4.9 2.8 12.1 6.8 15.9 8.6 3.9 1.9 7.7 4.1 8.6 4.8 2.1 1.7 37 19.8 46.9 24.3 1.6.7 4.8 2.3 12 5.9 2.5 1.3 8.1 4.1 12.5 6.3s9.4 4.8 11 5.6c5.4 2.9 42.8 22 51.5 26.3 4.7 2.4 10.6 5.8 13.1 7.6 2.6 1.8 5.2 3.3 5.8 3.3.6 0 1.6 1 2.2 2.2.5 1.3 1.9 3.9 2.9 5.8 1.3 2.3 1.7 4.7 1.4 7-1.3 8.7-4.8 28.2-6.9 38.5-3.8 18.2-5.6 33.4-5.8 46.9-.1 12.7.1 14.8 2.3 21.1 2.2 6.2 3.5 8 11.8 16.3 5.2 5.1 11.3 10.2 13.5 11.4 2.3 1.1 7.4 4 11.2 6.3 6.9 4.1 20 10.6 28 13.7 8.5 3.4 12.3 4.1 15.2 3.1 1.5-.6 4.8-1.7 7.3-2.4 5.1-1.5 32.2-15.1 35.9-18 1.3-1.1 2.8-1.9 3.3-1.9 3.2 0 23.5-19 24.4-22.8.4-1.5 1.5-4.4 2.6-6.4 1.5-3.2 1.8-6.2 1.8-19 .1-8.4-.4-18.7-.9-22.8-.9-7.4-5.4-31.2-7.1-38-1.4-5.3-3.8-19.8-4.5-26.6-.6-5.5-.4-6.3 2-9.2 5.6-6.7 13.8-11.3 69-39.2 20.4-10.3 38.4-19.4 40-20.2 1.7-.9 8-4 14-6.9 6.1-2.9 12.6-6.3 14.5-7.5 1.9-1.1 8.7-4.7 15-7.9 6.3-3.2 12.7-6.7 14.2-7.7 1.4-1 3.3-1.8 4-1.8.8 0 2.3-.9 3.3-2s2.1-2 2.5-2c1 0 15.9-8.6 17.8-10.3.9-.8 2.8-1.8 4.2-2.2 2.3-.7 10.6-5.5 20.3-11.7 2.3-1.5 5.3-3.3 6.7-4 1.4-.6 3.6-2.1 5-3.3 1.4-1.2 5.7-4 9.6-6.3 3.9-2.2 7.6-4.8 8.4-5.6.7-.9 1.8-1.6 2.5-1.6.6 0 2-.9 3-2s2.4-2 3.1-2c.7 0 2.1-.8 3.1-1.9 2.3-2.4 11-8.4 15.4-10.6 1.9-1 4.1-2.4 4.9-3.2 2.2-2 17-13.6 18.9-14.8 3.2-2 9.7-7.4 14.6-12.1 2.7-2.7 8.4-7 12.5-9.6 4.1-2.6 8.6-5.7 9.9-6.8 3.8-3.3 3.7-1.5-.2 4.5z"/></svg>