<?xml version="1.0" encoding="UTF-8" standalone="no"?>
<svg xmlns="http://www.w3.org/2000/svg" fill-rule="evenodd" stroke-linejoin="round" stroke-miterlimit="1.41421" clip-rule="evenodd" viewBox="0 0 71 50">
	<path fill="red" d="M69.941 7.824c-.823-3.059-3.235-5.471-6.294-6.295C58.059 0 35.706 0 35.706 0S13.353 0 7.765 1.471c-3 .823-5.471 3.294-6.294 6.353C0 13.412 0 25 0 25s0 11.647 1.471 17.176c.823 3.059 3.235 5.471 6.294 6.295C13.412 50 35.706 50 35.706 50s22.353 0 27.941-1.471c3.059-.823 5.471-3.235 6.294-6.294 1.471-5.588 1.471-17.176 1.471-17.176s.059-11.647-1.471-17.235z"/>
	<path fill="#fff" d="M47.176 25L28.588 14.294v21.412L47.176 25z"/>
</svg>